<?xml version="1.0" standalone="no"?><!DOCTYPE svg PUBLIC "-//W3C//DTD SVG 1.1//EN" "http://www.w3.org/Graphics/SVG/1.1/DTD/svg11.dtd"><svg t="1780460979900" class="icon" viewBox="0 0 1024 1024" version="1.1" xmlns="http://www.w3.org/2000/svg" p-id="33163" xmlns:xlink="http://www.w3.org/1999/xlink" width="200" height="200"><path d="M931.34016 674.496a75.648 75.648 0 0 0-19.328-2.56 74.496 74.496 0 0 0-71.936 76.48 76.352 76.352 0 0 0 51.2 73.28 281.28 281.28 0 0 1-88.64 95.168 71.936 71.936 0 0 0-66.176-45.952 74.304 74.304 0 0 0-72 76.544 54.4 54.4 0 0 0 1.536 14.336 72.96 72.96 0 0 0 69.568 62.208 97.152 97.152 0 0 0 40.32-9.088A331.008 331.008 0 0 0 980.94016 771.2a130.176 130.176 0 0 0 3.008-22.848 76.48 76.48 0 0 0-52.672-73.92zM753.10016 664.32a37.44 37.44 0 0 0-15.104-30.208 402.176 402.176 0 0 0-110.912-61.056 311.552 311.552 0 0 0 145.792-264.768A305.024 305.024 0 0 0 470.22016 0a306.624 306.624 0 0 0-302.592 310.208A306.688 306.688 0 0 0 311.50016 573.056 437.12 437.12 0 0 0 40.26816 932.48a35.072 35.072 0 0 0 33.28 39.68c20.224 1.92 64.832 0 392.96 0a433.024 433.024 0 0 1 250.048-270.336c19.392-7.616 36.544-16.832 36.544-37.504z" fill="#F26F73" p-id="33164"></path></svg>