<?xml version="1.0" standalone="no"?><!DOCTYPE svg PUBLIC "-//W3C//DTD SVG 1.1//EN" "http://www.w3.org/Graphics/SVG/1.1/DTD/svg11.dtd"><svg t="1780460894173" class="icon" viewBox="0 0 1024 1024" version="1.1" xmlns="http://www.w3.org/2000/svg" p-id="28494" xmlns:xlink="http://www.w3.org/1999/xlink" width="200" height="200"><path d="M0 0h1024v1024H0z" fill="#FFFFFF" p-id="28495"></path><path d="M170.7 192h768c23.6 0 42.7 19.1 42.7 42.7v490.7c0 23.6-19.1 42.7-42.7 42.7h-768c-23.6 0-42.7-19.1-42.7-42.7V234.7c0-23.6 19.1-42.7 42.7-42.7z" fill="#B3DBFF" p-id="28496"></path><path d="M917.3 42.7c58.9 0 106.7 47.8 106.7 106.7v533.3c0 58.9-47.8 106.7-106.7 106.7H618.7v128H736c17.7 0 32 14.3 32 32s-14.3 32-32 32H288c-17.7 0-32-14.3-32-32s14.3-32 32-32h117.3v-128H106.7C47.8 789.3 0 741.6 0 682.7V149.3C0 90.4 47.8 42.7 106.7 42.7h810.6zM554.7 917.3v-128h-85.3v128h85.3z m362.6-810.6H106.7c-23.6 0-42.7 19.1-42.7 42.7v533.3c0 23.6 19.1 42.7 42.7 42.7h810.7c23.6 0 42.7-19.1 42.7-42.7V149.3c-0.1-23.5-19.2-42.6-42.8-42.6zM800.1 264.2c12.3 11.1 14 29.6 4.4 42.6l-2.1 2.5-192 213.3c-10.8 12-28.6 14-41.7 5.1l-2.5-1.9-101.5-84.6L378 562.6c-10 14.1-29.3 17.5-43.4 8.3L332 569l-106.7-85.3c-13.8-11-16-31.2-5-45 10.4-12.9 28.7-15.7 42.3-6.9l2.7 1.9 80.3 64.2 87-121.8c10.2-14.3 29.7-17.5 43.9-7.9l2.6 2L583.5 457l171.4-190.4c11.8-13.1 32-14.2 45.2-2.4z" fill="#333333" p-id="28497"></path></svg>