<?xml version="1.0" standalone="no"?><!DOCTYPE svg PUBLIC "-//W3C//DTD SVG 1.1//EN" "http://www.w3.org/Graphics/SVG/1.1/DTD/svg11.dtd"><svg t="1780461054521" class="icon" viewBox="0 0 1024 1024" version="1.1" xmlns="http://www.w3.org/2000/svg" p-id="38813" xmlns:xlink="http://www.w3.org/1999/xlink" width="200" height="200"><path d="M584.5625 800h-343.125c0.5625 0 0.5625 0 0.5625-1.125V225.125c0-1.125 0-1.125-0.5625-1.125h343.125c-0.5625 0-0.5625 0-0.5625 1.125v170.4375c0 12.9375 6.75 24.75 18 30.9375 11.25 6.75 24.75 6.75 36 0 11.25-6.1875 18-18 18-30.9375V225.125c0-39.9375-30.9375-73.125-70.3125-73.125H240.3125c-39.375 0-70.3125 33.1875-70.3125 73.125v573.75c0 39.9375 30.9375 73.125 70.3125 73.125h345.375c39.375 0 70.3125-33.1875 70.3125-73.125v-83.8125c0-12.9375-6.75-24.75-18-30.9375a34.5375 34.5375 0 0 0-36 0c-11.25 6.1875-18 18-18 30.9375v83.8125c0 1.125 0 1.125 0.5625 1.125z" fill="#d81e06" p-id="38814"></path><path d="M440 548c0 24.1875 11.8125 36 36 36h288c24.1875 0 36-11.8125 36-36 0-24.1875-11.8125-36-36-36H476c-24.1875 0-36 11.8125-36 36z" fill="#d81e06" p-id="38815"></path><path d="M724.2875 433.8125c-17.4375 16.875-17.4375 33.75 0 50.625l88.875 89.4375c16.875 16.875 33.75 16.875 51.1875 0 16.875-17.4375 16.875-34.3125 0-51.1875l-89.4375-88.875c-16.875-17.4375-33.75-17.4375-50.625 0z" fill="#d81e06" p-id="38816"></path><path d="M724.2875 662.975c16.875 16.875 33.75 16.875 50.625 0l89.4375-89.4375c16.875-16.875 16.875-33.75 0-50.625-17.4375-17.4375-34.3125-17.4375-51.1875 0l-88.875 88.875c-17.4375 16.875-17.4375 33.75 0 51.1875z" fill="#d81e06" p-id="38817"></path></svg>