<?xml version="1.0" standalone="no"?><!DOCTYPE svg PUBLIC "-//W3C//DTD SVG 1.1//EN" "http://www.w3.org/Graphics/SVG/1.1/DTD/svg11.dtd"><svg t="1780460574180" class="icon" viewBox="0 0 1220 1024" version="1.1" xmlns="http://www.w3.org/2000/svg" p-id="10613" xmlns:xlink="http://www.w3.org/1999/xlink" width="238.28125" height="200"><path d="M720.008497 528.583837A42.45987 42.45987 0 1 0 767.431493 491.721149a42.394278 42.394278 0 0 0-47.422996 36.862688z" fill="#FF0000" p-id="10614"></path><path d="M346.746449 739.15593L444.522215 658.106117a23.744294 23.744294 0 0 1 19.262176-5.028718l123.925099 18.015929 54.069649-87.171731a8.745596 8.745596 0 0 1-1.617936-1.289975l-41.541582-37.321832a21.863991 21.863991 0 0 1-4.700758-5.903278l-0.349824-0.612192a2.470631 2.470631 0 0 0-0.262368-0.612191 21.382983 21.382983 0 0 1-2.055215-7.674261l-7.761716-99.940301a15.501569 15.501569 0 0 1 30.609586-4.21975l17.775425 88.002562L669.043535 540.040568l23.022782 12.440611a342.258909 342.258909 0 0 1 71.692025 51.314786l16.419857 15.304793a28.423188 28.423188 0 0 1 3.67315 2.579951l42.481734 35.900672a21.011295 21.011295 0 0 1 5.728366 7.477485 21.492303 21.492303 0 0 1 2.186399 10.669628v0.196776a0.918288 0.918288 0 0 1 0 0.415415 2.448767 2.448767 0 0 0-0.131184 0.962016 23.460062 23.460062 0 0 1-1.42116 5.64091l-31.265506 93.402967a15.523433 15.523433 0 0 1-29.888075-8.024084l16.966456-82.470973-35.419664-22.826006a28.095228 28.095228 0 0 1-5.028718-4.372798L675.602732 747.311199a51.271058 51.271058 0 0 1-26.236789 17.010185 33.670546 33.670546 0 0 1-5.247357 2.186399l-83.345533 24.050389-137.415181 117.19099A16.725953 16.725953 0 1 1 400.466274 883.30522l129.303641-131.817999 1.027607-1.027607 0.743376-0.808968a24.771901 24.771901 0 0 1 6.952749-4.21975l40.032967-16.048169-114.195623-27.592357-97.513398 64.520637a16.900865 16.900865 0 0 1-20.071144-27.067621z" fill="#FF0000" p-id="10615"></path><path d="M1171.915319 1024H48.783985a48.778563 48.778563 0 0 1-41.738358-74.031472L568.622226 23.50379a48.800427 48.800427 0 0 1 83.454852 0l561.576599 926.464738A48.778563 48.778563 0 0 1 1171.915319 1024zM72.156591 962.015587h1076.32053L610.360584 74.206384zM621.620539 55.621992z" fill="#FF0000" p-id="10616"></path></svg>