<?xml version="1.0" standalone="no"?><!DOCTYPE svg PUBLIC "-//W3C//DTD SVG 1.1//EN" "http://www.w3.org/Graphics/SVG/1.1/DTD/svg11.dtd"><svg t="1780460368673" class="icon" viewBox="0 0 1024 1024" version="1.1" xmlns="http://www.w3.org/2000/svg" p-id="6100" xmlns:xlink="http://www.w3.org/1999/xlink" width="200" height="200"><path d="M962.189135 193.674044h-61.810865v727.307847h61.810865c33.995976 0 61.810865-27.814889 61.810865-61.810865V255.484909c0-33.995976-27.814889-61.810865-61.810865-61.810865z" fill="#41494E" p-id="6101"></path><path d="M962.189135 859.171026V255.484909c0-33.995976-27.814889-61.810865-61.810865-61.810865H61.810865c-33.995976 0-61.810865 27.814889-61.810865 61.810865v603.686117c0 33.995976 27.814889 61.810865 61.810865 61.810865h202.945674l247.243461-103.018108 247.243461 103.018108H900.37827c33.995976 0 61.810865-27.814889 61.810865-61.810865z" fill="#5A656B" p-id="6102"></path><path d="M635.62173 797.360161l-123.62173-72.112676-123.62173 72.112676-123.621731 123.62173h494.486922z" fill="#728287" p-id="6103"></path><path d="M714.945674 756.152918l185.432596-123.621731V317.295775h-61.810866z" fill="#5AECFF" p-id="6104"></path><path d="M838.567404 756.152918L123.62173 632.531187V317.295775h714.945674z" fill="#ADF5FF" p-id="6105"></path><path d="M838.567404 632.531187l-247.24346 82.414487 247.24346 82.414487h61.810866v-164.828974z" fill="#5DC75D" p-id="6106"></path><path d="M123.62173 632.531187h714.945674v164.828974H123.62173z" fill="#AED06D" p-id="6107"></path><path d="M512 103.018109v591.323943l169.854197-246.421376C709.704113 411.76132 726.277666 366.466318 726.277666 317.295775c0-118.343082-95.934584-214.277666-214.277666-214.277666z" fill="#FF1B10" p-id="6108"></path><path d="M664.466801 317.295775c0-118.343082-68.261859-214.277666-152.466801-214.277666-118.343082 0-214.277666 95.934584-214.277666 214.277666 0 49.170543 16.573553 94.465545 44.423469 130.624901L512 694.342052l120.856724-246.421376c19.816563-36.159356 31.610076-81.454358 31.610077-130.624901z" fill="#FF451B" p-id="6109"></path><path d="M512 164.828974v304.933601c84.204942 0 152.466801-68.261859 152.466801-152.4668s-68.261859-152.466801-152.466801-152.466801z" fill="#D6FAFF" p-id="6110"></path><path d="M602.655936 317.295775c0-84.204942-40.587074-152.466801-90.655936-152.466801-84.204942 0-152.466801 68.261859-152.466801 152.466801s68.261859 152.466801 152.466801 152.4668c50.066801 0 90.655936-68.261859 90.655936-152.4668z" fill="#FFFFFF" p-id="6111"></path><path d="M838.567404 586.173038h-61.810865a15.452716 15.452716 0 0 1 0-30.905432h61.810865a15.452716 15.452716 0 0 1 0 30.905432zM247.243461 709.794769H185.432596a15.452716 15.452716 0 0 1 0-30.905433h61.810865a15.452716 15.452716 0 0 1 0 30.905433zM838.567404 524.362173h-61.810865a15.452716 15.452716 0 0 1 0-30.905433h61.810865a15.452716 15.452716 0 0 1 0 30.905433z" fill="#41494E" p-id="6112"></path></svg>