<?xml version="1.0" standalone="no"?><!DOCTYPE svg PUBLIC "-//W3C//DTD SVG 1.1//EN" "http://www.w3.org/Graphics/SVG/1.1/DTD/svg11.dtd"><svg t="1780461005606" class="icon" viewBox="0 0 1194 1024" version="1.1" xmlns="http://www.w3.org/2000/svg" p-id="34170" xmlns:xlink="http://www.w3.org/1999/xlink" width="233.203125" height="200"><path d="M877.012615 1.772949a351.066838 351.066838 0 0 0-279.713903 97.593175A350.979841 350.979841 0 0 0 317.627807 1.772949C145.724783 18.556463 0.215994 180.414778-0.001999 355.252717a363.654474 363.654474 0 0 0 7.565781 71.569928H242.362985l42.458771-150.009657a43.654736 43.654736 0 0 1 80.049683-9.69672l157.422444 278.083951 72.047914-218.210684a43.633737 43.633737 0 0 1 79.005713-8.695748l64.526133 108.528858h150.009658a43.893729 43.893729 0 0 1 0 87.76646H713.110359a43.698735 43.698735 0 0 1-37.545913-21.392381L647.301264 445.606102l-72.917889 220.862607a43.654736 43.654736 0 0 1-79.504699 7.913771l-154.466529-272.822103-22.979335 81.17865a43.741734 43.741734 0 0 1-42.046783 31.894077H37.522914c1.759949 3.564897 3.064911 7.26079 4.956857 10.760688A1238.451153 1238.451153 0 0 0 464.246563 984.94649a245.950881 245.950881 0 0 0 265.973301 0 1239.212131 1239.212131 0 0 0 421.767792-459.312705 354.10975 354.10975 0 0 0 42.610767-170.338069c-0.282992-174.771941-145.661784-336.674255-317.629807-353.479769z" fill="#FC0740" p-id="34171"></path></svg>