<?xml version="1.0" standalone="no"?><!DOCTYPE svg PUBLIC "-//W3C//DTD SVG 1.1//EN" "http://www.w3.org/Graphics/SVG/1.1/DTD/svg11.dtd"><svg t="1780460724849" class="icon" viewBox="0 0 1024 1024" version="1.1" xmlns="http://www.w3.org/2000/svg" p-id="20103" xmlns:xlink="http://www.w3.org/1999/xlink" width="200" height="200"><path d="M675.84 327.68a117.312 117.312 0 1 0 0-234.688 117.312 117.312 0 0 0 0 234.688zM479.744 613.696a10.88 10.88 0 0 0-5.12-9.152h-0.064L315.392 506.944l-0.064-0.064a53.376 53.376 0 0 1 0-90.688v-0.064l158.976-97.728h0.128l5.76-3.2a74.88 74.88 0 0 1 88.32 16.448l113.92 123.264 3.776 2.688a10.88 10.88 0 0 0 4.352 0.96h162.752l6.4 0.64a32 32 0 0 1 0 62.72l-6.4 0.64H690.56c-20.992 0-40.96-8.96-55.04-24.128h-0.128L521.6 375.168l-0.128-0.128a10.88 10.88 0 0 0-13.696-1.984v-0.064l-144 88.576 144.256 88.32c22.016 13.44 35.776 37.632 35.776 63.808l0.256 196.864-0.64 6.528a32 32 0 0 1-62.72 0l-0.64-6.464-0.256-196.864v-0.064z" fill="#282828" p-id="20104"></path><path d="M782.72 974.72a192 192 0 1 0 0-384 192 192 0 0 0 0 384z" fill="#FDE537" p-id="20105"></path><path d="M942.72 782.72a160 160 0 1 0-320 0 160 160 0 0 0 320 0z m64 0a224 224 0 1 1-448 0 224 224 0 0 1 448 0z" fill="#282828" p-id="20106"></path><path d="M231.232 974.72a192 192 0 1 0 0-384 192 192 0 0 0 0 384z" fill="#FDE537" p-id="20107"></path><path d="M391.232 782.72a160 160 0 1 0-320 0 160 160 0 0 0 320 0z m64 0a224 224 0 1 1-448 0 224 224 0 0 1 448 0z" fill="#282828" p-id="20108"></path></svg>