<?xml version="1.0" standalone="no"?><!DOCTYPE svg PUBLIC "-//W3C//DTD SVG 1.1//EN" "http://www.w3.org/Graphics/SVG/1.1/DTD/svg11.dtd"><svg t="1780463403694" class="icon" viewBox="0 0 1063 1024" version="1.1" xmlns="http://www.w3.org/2000/svg" p-id="2567" xmlns:xlink="http://www.w3.org/1999/xlink" width="207.6171875" height="200"><path d="M366.322795 704.532446m-133.750416 0a133.750416 133.750416 0 1 0 267.500832 0 133.750416 133.750416 0 1 0-267.500832 0Z" fill="#D3241C" opacity=".1" p-id="2568"></path><path d="M471.789684 385.57604c0 55.885524 0 111.771048-0.170383 167.656572 0 6.30416 1.87421 10.563727 6.815308 15.16406 41.573378 37.654576 60.997005 84.509817 58.100499 140.395341-3.918802 72.412646-54.863228 134.261564-124.54975 154.19634-57.759734 16.527121-111.430283 5.622629-157.092846-33.224626-60.315474-51.114809-78.035275-123.186689-50.262895-197.132779 8.519135-22.831281 22.320133-42.936439 40.380699-59.293178 5.622629-4.941098 7.156073-10.222962 7.156073-17.038269-0.170383-109.726456 0-219.623295-0.170382-329.690516-0.170383-39.017637 13.119468-71.390349 44.810649-94.732779 35.609983-26.409318 74.968386-29.646589 114.156406-10.222961 38.847255 19.253245 60.315474 52.137105 60.826622 96.09584 0.511148 55.885524 0 111.941431 0 167.826955z m-45.151414 10.222962h-0.170383c0-60.485857 0.681531-121.142097-0.170383-181.627954-0.340765-25.387022-15.16406-43.61797-37.824958-53.670549-22.490516-9.882196-44.640266-7.156073-64.575042 7.837604-19.423627 14.652912-25.387022 34.928453-25.387021 58.441265 0.170383 117.734443 0 235.809651 0.170382 353.544093 0 6.30416-1.533444 10.393344-7.326456 14.312146-47.877537 32.543095-66.449251 99.333111-43.106822 152.833278 22.14975 50.603661 73.434942 80.761398 128.638935 75.990682 52.47787-4.600333 98.310815-42.936439 111.430283-93.369717 13.971381-53.159401-7.156073-108.363394-53.329783-138.521131-5.963394-3.918802-8.178369-8.178369-8.17837-15.16406 0-59.974709-0.170383-120.290183-0.170382-180.605657z m478.093843 287.946755c-1.022296 71.560732-45.49218 131.024293-113.986023 152.32213-61.508153 19.082862-134.602329-6.644925-172.256905-59.804326-29.816972-42.425291-39.18802-88.599002-25.046257-138.521132 20.275541-71.390349 53.840932-136.306156 102.229618-193.043594 6.985691-8.178369 15.845591-14.993677 24.705491-21.297837 17.379035-12.097171 35.269218-11.586023 52.989018-0.170382 17.379035 10.904493 30.839268 25.89817 42.766056 42.425291 38.165724 53.670549 68.153078 111.430283 84.509817 175.834942 2.044592 7.837604 3.407654 15.504825 4.259568 23.512812 0.340765 5.963394-0.170383 12.267554-0.170383 18.742096z m-156.070549-224.905158c-4.600333 3.578037-7.156073 5.622629-9.711814 7.496839-2.044592 1.533444-3.918802 3.407654-5.793011 5.452246-32.88386 34.076539-54.863228 74.968386-73.94609 117.734442-12.097171 27.261231-23.853577 54.863228-25.216639 85.020966-2.385358 47.707155 17.549418 85.36173 59.293178 108.533777 40.891847 22.831281 82.635607 19.253245 120.290183-8.17837 38.336106-28.113145 54.35208-67.471547 44.981032-113.986023-11.926789-59.804326-39.699168-113.13411-75.138769-162.545092-10.563727-13.971381-23.001664-26.238935-34.75807-39.528785z m0 0" fill="#F37B70" p-id="2569"></path><path d="M341.95807 476.219634V302.599667c0-19.423627 14.141764-30.839268 30.839268-25.046256 9.711814 3.407654 15.334443 11.415641 15.504825 23.001664 0.170383 12.608319 0 25.046256 0 37.824958 0 104.27421 0 208.548419-0.170383 312.481864 0 6.644925 1.192679 11.415641 6.815308 15.845591 20.616306 17.379035 21.46822 48.388686 2.555741 67.812312-18.230948 19.082862-48.559068 18.571714-66.9604-1.363061-18.571714-19.934775-16.867887-49.581364 4.089185-66.619634 5.963394-4.770715 7.326456-9.711814 7.326456-16.697504-0.170383-57.759734 0-115.68985 0-173.619967z m490.020632 195.428952" fill="#D3241C" p-id="2570"></path><path d="M831.978702 673.352413c0 40.039933-16.527121 65.426955-45.151414 83.828286-9.711814 6.133777-22.660899 3.407654-29.305824-5.622629-6.985691-9.541431-5.963394-22.490516 2.726123-30.668885 0.851913-0.681531 1.363062-1.363062 2.214975-2.044593 29.305824-19.764393 28.624293-47.877537 13.800999-74.968386-6.644925-11.756406-14.993677-22.490516-22.660899-33.565391-11.586023-16.697504-6.30416-34.928453 11.756406-37.654575 6.985691-1.022296 17.03827 1.533444 21.46822 6.304159 24.705491 28.794676 43.106822 60.315474 45.151414 94.392014z" fill="#F37B70" p-id="2571"></path></svg>